<svg xmlns="http://www.w3.org/2000/svg" xmlns:xlink="http://www.w3.org/1999/xlink" width="73.695" height="69" viewBox="0 0 73.695 69">
  <defs>
    <linearGradient id="linear-gradient" x1="0.5" x2="0.5" y2="1" gradientUnits="objectBoundingBox">
      <stop offset="0" stop-color="#6984ff"/>
      <stop offset="1" stop-color="#224aff"/>
    </linearGradient>
  </defs>
  <g id="gift" transform="translate(0 -16.308)">
    <g id="그룹_3933" data-name="그룹 3933" transform="translate(4.606 53.067)">
      <g id="그룹_3932" data-name="그룹 3932">
        <path id="패스_2398" data-name="패스 2398" d="M32,271.692v27.635a4.611,4.611,0,0,0,4.606,4.606h23.03V271.692Z" transform="translate(-32 -271.692)" fill="url(#linear-gradient)"/>
      </g>
    </g>
    <g id="그룹_3935" data-name="그룹 3935" transform="translate(0 16.308)">
      <g id="그룹_3934" data-name="그룹 3934">
        <path id="패스_2399" data-name="패스 2399" d="M69.089,34.643H54.516a17.9,17.9,0,0,0,2.57-2.059,9.627,9.627,0,0,0,0-13.551,9.733,9.733,0,0,0-13.509,0c-2,2-7.3,10.161-6.563,15.609h-.332c.728-5.449-4.569-13.606-6.563-15.609a9.741,9.741,0,0,0-13.509,0,9.64,9.64,0,0,0,0,13.551,18.228,18.228,0,0,0,2.575,2.059H4.606A4.614,4.614,0,0,0,0,39.249v6.909a2.3,2.3,0,0,0,2.3,2.3H32.241V39.249h9.212v9.212H71.392a2.3,2.3,0,0,0,2.3-2.3V39.249A4.611,4.611,0,0,0,69.089,34.643ZM31.97,34.491a1.519,1.519,0,0,1-.852.152c-3.183,0-9.258-3.307-11.243-5.306a5.024,5.024,0,0,1,0-7.056,4.91,4.91,0,0,1,6.978,0C29.957,25.4,33.043,33.381,31.97,34.491Zm10.6.152c-.654,0-.847-.147-.847-.152-1.073-1.11,2.013-9.087,5.117-12.21a4.962,4.962,0,0,1,6.978,7.056C51.835,31.336,45.76,34.643,42.572,34.643Z" transform="translate(0 -16.308)" fill="url(#linear-gradient)"/>
      </g>
    </g>
    <g id="그룹_3937" data-name="그룹 3937" transform="translate(41.453 53.067)">
      <g id="그룹_3936" data-name="그룹 3936">
        <path id="패스_2400" data-name="패스 2400" d="M288,271.692v32.241h23.03a4.608,4.608,0,0,0,4.606-4.606V271.692Z" transform="translate(-288 -271.692)" fill="url(#linear-gradient)"/>
      </g>
    </g>
  </g>
</svg>
